<?xml version="1.0" encoding="UTF-8" standalone="no"?>
<!-- Created with Inkscape (http://www.inkscape.org/) -->

<svg
   width="72.673897mm"
   height="80.889931mm"
   viewBox="0 0 72.673897 80.889931"
   version="1.1"
   id="svg1"
   xml:space="preserve"
   inkscape:export-filename="fokinAbejita.svg"
   inkscape:export-xdpi="96"
   inkscape:export-ydpi="96"
   inkscape:version="1.3 (0e150ed6c4, 2023-07-21)"
   sodipodi:docname="fokinAbejita.svg"
   xmlns:inkscape="http://www.inkscape.org/namespaces/inkscape"
   xmlns:sodipodi="http://sodipodi.sourceforge.net/DTD/sodipodi-0.dtd"
   xmlns="http://www.w3.org/2000/svg"
   xmlns:svg="http://www.w3.org/2000/svg"><sodipodi:namedview
     id="namedview1"
     pagecolor="#505050"
     bordercolor="#eeeeee"
     borderopacity="1"
     inkscape:showpageshadow="0"
     inkscape:pageopacity="0"
     inkscape:pagecheckerboard="0"
     inkscape:deskcolor="#505050"
     inkscape:document-units="mm"
     inkscape:zoom="1.0544998"
     inkscape:cx="440.96737"
     inkscape:cy="532.47995"
     inkscape:window-width="1920"
     inkscape:window-height="1051"
     inkscape:window-x="-9"
     inkscape:window-y="-9"
     inkscape:window-maximized="1"
     inkscape:current-layer="layer2" /><defs
     id="defs1" /><g
     inkscape:groupmode="layer"
     id="layer2"
     inkscape:label="Bee"
     style="display:inline"
     transform="translate(-79.598185,-73.18334)"><ellipse
       style="display:inline;fill:#000000;fill-opacity:1;stroke:#9600a3;stroke-width:0;stroke-linejoin:bevel"
       id="path1"
       cx="116.03226"
       cy="103.16936"
       rx="15.790323"
       ry="14.10484"
       inkscape:label="Head" /><g
       id="g4"
       inkscape:label="Body"
       style="fill:#000000;fill-opacity:1"><ellipse
         style="display:inline;fill:#ffff36;fill-opacity:1;stroke:#000000;stroke-width:3.28734;stroke-linejoin:bevel;stroke-dasharray:none;stroke-opacity:1"
         id="path2"
         cx="116.03226"
         cy="130.04839"
         rx="16.989033"
         ry="16.854836"
         inkscape:label="Belly" /><path
         style="fill:#000000;fill-opacity:1;stroke:#000000;stroke-width:0;stroke-linejoin:bevel;stroke-dasharray:none;stroke-opacity:1"
         d="m 132.35342,134.72779 c 0,0 -5.21724,3.70445 -16.32116,3.7739 -11.10393,0.0695 -16.321167,-3.7739 -16.321167,-3.7739 v -9.35881 c 0,0 10.786097,3.01854 16.321157,3.03363 5.53506,0.0151 16.34638,-2.94621 16.34638,-2.94621 v 9.18396 z"
         id="path4"
         sodipodi:nodetypes="czcczccc"
         inkscape:label="Belly Line" /></g><g
       id="g2"
       inkscape:label="Wings"><path
         style="fill:#ffffff;fill-opacity:1;stroke:#000000;stroke-width:3.70417;stroke-linejoin:bevel;stroke-dasharray:none;stroke-opacity:1"
         d="m 110.6508,106.44808 c 0,0 -7.52726,-2.57182 -17.438162,3.57545 -9.910897,6.14727 -15.305439,10.41272 -9.158171,18.00271 6.147266,7.59 11.792715,5.33182 15.681804,3.19909 3.889089,-2.13272 23.648159,-19.67545 10.914529,-24.77725 z"
         id="path5"
         sodipodi:nodetypes="csssc"
         inkscape:label="Left Wing" /><path
         style="display:inline;fill:#ffffff;fill-opacity:1;stroke:#000000;stroke-width:3.70417;stroke-linejoin:bevel;stroke-dasharray:none;stroke-opacity:1"
         d="m 121.21946,106.44808 c 0,0 7.52726,-2.57182 17.43816,3.57545 9.9109,6.14727 15.30545,10.41272 9.15818,18.00271 -6.14727,7.59 -11.79272,5.33182 -15.68181,3.19909 -3.88909,-2.13272 -23.64816,-19.67545 -10.91453,-24.77725 z"
         id="path5-6"
         sodipodi:nodetypes="csssc"
         inkscape:label="Right Wing" /></g><path
       sodipodi:type="star"
       style="fill:#000000;fill-opacity:1;stroke:#000000;stroke-width:0;stroke-linejoin:bevel;stroke-dasharray:none;stroke-opacity:1"
       id="path6"
       inkscape:flatsided="false"
       sodipodi:sides="3"
       sodipodi:cx="116.03226"
       sodipodi:cy="146.90321"
       sodipodi:r1="4.5242162"
       sodipodi:r2="3.3162501"
       sodipodi:arg1="1.5707963"
       sodipodi:arg2="2.6179939"
       inkscape:rounded="0.37"
       inkscape:randomized="0"
       d="m 116.03226,151.42743 c -1.50125,0 -2.12134,-1.56598 -2.87196,-2.86609 -0.75062,-1.30012 -1.79675,-2.62012 -1.04613,-3.92023 0.75062,-1.30012 2.41684,-1.05415 3.91809,-1.05415 1.50124,0 3.16746,-0.24597 3.91808,1.05415 0.75062,1.30011 -0.2955,2.62011 -1.04613,3.92023 -0.75062,1.30011 -1.37071,2.86609 -2.87195,2.86609 z"
       inkscape:transform-center-x="1.4618237e-06"
       inkscape:transform-center-y="0.59471299"
       transform="translate(0,2.6458334)"
       inkscape:label="Tail" /><g
       id="g1"
       inkscape:label="Antenas"><path
         style="fill:none;fill-opacity:1;stroke:#000000;stroke-width:3.175;stroke-linecap:round;stroke-linejoin:bevel;stroke-dasharray:none;stroke-opacity:1"
         d="m 111.27808,91.581731 c 0,0 -1.12909,-12.796351 -13.549081,-16.810892"
         id="path7"
         inkscape:label="Left Antena" /><path
         style="fill:none;fill-opacity:1;stroke:#000000;stroke-width:3.175;stroke-linecap:round;stroke-linejoin:bevel;stroke-dasharray:none;stroke-opacity:1"
         d="m 120.66794,91.581731 c 0,0 1.12909,-12.796351 13.54908,-16.810892"
         id="path7-8"
         inkscape:label="Right Antena" /></g></g></svg>
